PathFileType	4	(X/Y/Z)	Patient5_TMGait_0pt45_1_right_04.trc.trc
DataRate	CameraRate	NumFrames	NumMarkers	Units	OrigDataRate	OrigDataStartFrame	OrigNumFrames
55.776892430279	55.776892430279	5	32	mm	55.776892430279	89	       141
Frame#	Time	R.ASIS			L.ASIS			Chest			R.Shoulder			Neck			L.Shoulder			L.Elbow			L.Wrist			R.Elbow			R.Wrist			L.Thigh.Superior			L.Thigh.Lateral			L.Thigh.Inferior			L.Patella			L.Shank.Superior			L.Shank.Lateral			L.Shank.Inferior			L.Heel			L.Midfoot.Lateral			L.Midfoot.Superior			L.Toe			R.Thigh.Superior			R.Thigh.Lateral			R.Thigh.Inferior			R.Patella			R.Shank.Superior			R.Shank.Lateral			R.Shank.Inferior			R.Heel			R.Midfoot.Lateral			R.Midfoot.Superior			R.Toe			
		X1	Y1	Z1	X2	Y2	Z2	X3	Y3	Z3	X4	Y4	Z4	X5	Y5	Z5	X6	Y6	Z6	X7	Y7	Z7	X8	Y8	Z8	X9	Y9	Z9	X10	Y10	Z10	X11	Y11	Z11	X12	Y12	Z12	X13	Y13	Z13	X14	Y14	Z14	X15	Y15	Z15	X16	Y16	Z16	X17	Y17	Z17	X18	Y18	Z18	X19	Y19	Z19	X20	Y20	Z20	X21	Y21	Z21	X22	Y22	Z22	X23	Y23	Z23	X24	Y24	Z24	X25	Y25	Z25	X26	Y26	Z26	X27	Y27	Z27	X28	Y28	Z28	X29	Y29	Z29	X30	Y30	Z30	X31	Y31	Z31	X32	Y32	Z32	

89	7.687714285714	941.960850005598	1013.521825508503	529.704958833664	975.733402361218	963.581803678051	287.737766387543	1040.135473792461	1443.822434801221	429.662095364494	905.415309856397	1508.734088096385	568.070583625657	927.997140150750	1570.947156777433	385.717940030482	1035.137112547676	1517.613412696087	228.735676621147	1009.650650968254	1198.791680874982	80.278684536536	1165.223126919662	959.518120356818	102.808151609716	785.959560209063	1187.944352846349	677.586149572993	995.269204191665	987.123987538903	666.197204350246	995.077107849282	746.387423899309	294.348596395770	926.991475438633	673.246916337171	251.451980383793	992.807005262385	620.808530764202	326.783830183272	993.976461059109	506.318661052318	341.790408451075	946.549021253379	403.573979157017	361.794709458818	891.465908917731	330.062506165741	278.080381889722	912.691064209335	280.931873738267	372.479898199670	781.246068726368	50.061997815077	376.388070830065	870.044618233796	27.173773306637	315.920593561102	966.846212043791	88.772752447433	361.772084356287	1074.803583972536	45.147172905395	365.270688888318	970.524051049929	790.026756165751	577.120722045380	887.820871275278	717.109980723829	639.115046634169	978.213368242635	656.380667689287	585.661762667576	973.451158970347	552.123118887567	631.167683296267	884.388985888203	458.494801174374	596.784460368563	781.745233870274	442.282113354872	674.815314269970	796.639050815028	346.575026191415	600.610189325209	582.665570653169	232.056489716774	569.047824692056	615.174772210269	153.595554228671	639.969090757425	740.750561414619	139.419045778191	635.272683442771	793.191082905589	41.096006547576	632.778654383247	
90	7.705642857143	939.686754907084	1014.785078391036	527.185233110750	973.366588680114	963.730214867155	285.898248624093	1038.043044280527	1444.397112632464	427.424368920124	902.953634252533	1509.154313529912	565.399692678294	926.157297587081	1571.497556664092	383.218731742430	1033.836775649738	1518.261275671328	226.693855236547	1010.780244935672	1199.088561516423	78.441034932759	1168.106986990961	961.125330476814	102.334689713539	783.153606420829	1188.193112675924	674.180322982938	992.356216386848	987.258208314103	662.423369782764	990.877404008032	745.997658911291	292.147251203994	921.344490174981	673.675288227696	250.031283695851	987.585907484640	620.328323570236	324.132603097383	987.583204568403	505.653284772843	338.615570676214	939.656265135903	403.525521517971	359.395856312783	882.772980043057	330.272957170331	276.651023845441	905.442497166970	280.985506170495	370.691184368376	773.152617668701	50.075824247031	376.298402585303	861.928761285370	27.086841360016	315.779390531367	958.907415816800	88.803222718266	361.247777665907	1066.656576636179	45.133825223464	365.167483353383	968.927182605123	791.691655528188	575.929718730236	886.665631145452	719.152649719866	637.926457700656	976.732176829307	658.500269965060	584.452540144515	973.026470199113	555.287597508263	631.113065095127	887.661950165293	459.570159334453	598.194587278347	785.008287942626	440.660517308749	675.088428651915	805.065307617046	344.366496430544	603.487020656473	597.242251688562	217.014920505127	571.214745526534	632.936681816164	144.040216544265	646.174362591066	758.801145399634	137.354270930711	643.985738282113	816.906893339504	42.678934585632	647.106432794217	
91	7.723571428571	937.199810721439	1015.814857838115	524.954580034448	970.914421902690	963.834401409417	284.224804635065	1035.877155288777	1444.822057493752	425.250342483754	900.493579462848	1509.574673457199	562.812110472043	924.250196233345	1571.938226509984	380.735351317122	1032.470336692828	1518.680562838494	224.709460704174	1011.740682993269	1199.166546479449	76.755343082486	1170.379541722973	962.250686522718	102.111784898704	780.265361145281	1188.510945161639	670.959779933899	989.410843805618	987.515016794556	658.881387148242	986.654032949483	745.634795763409	290.200093089046	915.784122403852	674.021129650309	248.864248625488	982.366613707508	619.845038475354	321.701239733693	981.204891948524	504.999676637905	335.674707215247	932.769659934457	403.480296043582	357.185880738966	874.132507183467	330.513307731119	275.482420958639	898.214707777624	281.044363040823	369.024505167705	765.062732340979	50.037288717919	376.288939927936	853.827787070147	27.018504502956	315.670782584247	950.958419069090	88.834330079312	360.781425106126	1058.522623704224	45.131145734731	365.069639752321	966.628454421572	793.234280484085	575.452834763931	884.667798910907	721.022257795078	636.976674350750	974.793393275438	660.623500808787	583.961477966909	972.304069647929	558.649293175360	631.832239023715	891.866985765355	460.589560415647	600.024868546102	789.128987930068	438.058732652169	675.211976607296	815.680738777449	341.656854609174	606.611388187065	616.202235124012	199.971152708147	572.977234426772	654.913084746876	133.025902921668	652.098686955371	780.647437495075	134.957261767508	652.951135183534	844.897378677247	44.848159091166	661.975196962170	
92	7.741500000000	934.585782184499	1016.649991250579	523.147298305218	968.407494152962	963.867178480196	282.738876865445	1033.602358954744	1445.108390059986	423.153997941755	897.987939360639	1509.994818812210	560.320463893654	922.246193189511	1572.270537267762	378.293632353787	1030.980048278998	1518.881145042709	222.783226911599	1012.508116697993	1199.009092719278	75.265654506521	1172.047269767098	962.880328161920	102.099700923370	777.287729038635	1188.886729682971	667.953758855337	986.445357119836	987.905736274063	655.608054516224	982.435133271850	745.293033897233	288.590481631949	910.373483046092	674.302770650672	247.940612968412	977.147245280676	619.353432621207	319.575730872593	974.832913021696	504.368242440933	333.054979203269	925.891514345625	403.431469994508	355.220358761971	865.611188541091	330.774271486827	274.566122373309	891.025697580551	281.113604057945	367.544796863192	756.975368830689	49.958349810141	376.347267864377	845.738246977866	26.965511932708	315.595953212684	942.992147956191	88.854511584807	360.385430308680	1050.399879731676	45.135704426858	364.980583165668	963.855346561488	794.746400929648	575.677962932039	882.078670634042	722.711842956094	636.338088904173	972.673669253721	662.821985386595	584.205170224210	971.635734161702	562.218734970520	633.319958897502	897.121055757523	461.746397588495	602.172952738622	794.372685448442	434.789323395037	675.231415747528	828.359785397308	338.937013359984	609.816252361204	639.215855215331	182.374865744178	574.376612193188	680.603606602964	121.541591834622	657.352848273171	805.614293756317	132.754149036990	661.511179101564	876.056347537033	47.953942034111	676.160159995431	
93	7.759428571429	931.908907911077	1017.330228531868	521.857458642596	965.864217527013	963.819964927399	281.469471702806	1031.186765260704	1445.281215593360	421.160941865023	895.380908503011	1510.422260472370	557.938260038694	920.117309389224	1572.504719770950	375.921757437962	1029.312840621743	1518.878793318021	220.920162095380	1013.044580957287	1198.611175429543	74.010183380084	1173.117835385641	963.024923269664	102.261321057005	774.220801730170	1189.311828335950	665.189296435923	983.470043990074	988.431140508905	652.636455161588	978.231265803295	744.962160008870	287.354996923410	905.132223171697	674.550854444185	247.222459522762	971.905700072184	618.850646809748	317.804361374627	968.442253358686	503.771649574763	330.804709103356	919.011246814759	403.378140472971	353.527118953819	857.244213534183	331.048800990735	273.872600011778	883.880775923330	281.197825073682	366.294356799249	748.891884508076	49.874015852667	376.438421830125	837.655223162309	26.926942089316	315.549573557950	935.005064095615	88.856319567293	360.061694381854	1042.284535323266	45.145668114784	364.900951317675	960.888868891103	796.321702666034	576.499167524213	879.247368945889	724.221999238685	636.041084377756	970.713933585497	665.175958530138	585.114518972899	971.403813206767	565.997365811557	635.465306377698	903.489263468670	463.224256178831	604.483752082391	800.944726343969	431.225492987884	675.183816243856	842.826263618903	336.677440025799	612.892481815114	665.552075599024	165.619646172626	575.435893344011	709.248677748288	110.544311890482	661.598326187548	832.856140912088	131.245713008479	669.047594940918	909.205931751133	52.279508518184	688.537946462861	
